<?xml version="1.0" standalone="no"?><!DOCTYPE svg PUBLIC "-//W3C//DTD SVG 1.1//EN" "http://www.w3.org/Graphics/SVG/1.1/DTD/svg11.dtd"><svg t="1738930519371" class="icon" viewBox="0 0 1025 1024" version="1.1" xmlns="http://www.w3.org/2000/svg" p-id="2593" xmlns:xlink="http://www.w3.org/1999/xlink" width="200.1953125" height="200"><path d="M234.666667 217.6l505.6 0c17.066667 0 32-14.933333 32-32l0 0c0-17.066667-14.933333-32-32-32L234.666667 153.6c-17.066667 0-32 14.933333-32 32l0 0C202.666667 202.666667 217.6 217.6 234.666667 217.6zM217.6 437.333333l420.266667 0c17.066667 0 32-14.933333 32-32l0 0c0-17.066667-14.933333-32-32-32L217.6 373.333333c-17.066667 0-32 14.933333-32 32l0 0C185.6 422.4 200.533333 437.333333 217.6 437.333333zM550.4 593.066667 217.6 593.066667c-17.066667 0-32 14.933333-32 32l0 0c0 17.066667 14.933333 32 32 32l332.8 0c17.066667 0 32-14.933333 32-32l0 0C582.4 608 567.466667 593.066667 550.4 593.066667zM465.066667 812.8 217.6 812.8c-17.066667 0-32 14.933333-32 32l0 0c0 17.066667 14.933333 32 32 32l247.466667 0c17.066667 0 32-14.933333 32-32l0 0C497.066667 827.733333 482.133333 812.8 465.066667 812.8zM1021.866667 390.4c-6.4-27.733333-23.466667-51.2-46.933333-64-10.666667-6.4-23.466667-10.666667-34.133333-12.8L940.8 142.933333C938.666667 64 874.666667 0 795.733333 0L179.2 0C98.133333 0 34.133333 64 34.133333 142.933333l0 733.866667c0 78.933333 64 142.933333 142.933333 142.933333l616.533333 0c78.933333 0 142.933333-64 142.933333-142.933333L936.533333 582.4l70.4-115.2C1024 445.866667 1028.266667 416 1021.866667 390.4zM896 878.933333c0 55.466667-44.8 100.266667-100.266667 100.266667L179.2 979.2c-55.466667 0-100.266667-44.8-100.266667-100.266667L78.933333 142.933333C76.8 87.466667 123.733333 42.666667 179.2 42.666667l616.533333 0C851.2 42.666667 896 87.466667 896 142.933333l0 168.533333c0 0-2.133333 0-2.133333 0-27.733333 6.4-51.2 23.466667-64 46.933333L599.466667 738.133333l-4.266667 209.066667 183.466667-100.266667 117.333333-194.133333L896 878.933333zM972.8 445.866667 896 569.6l0 0 0 0-149.333333 243.2L637.866667 874.666667l2.133333-123.733333 224-369.066667c8.533333-14.933333 21.333333-23.466667 38.4-27.733333 17.066667-4.266667 32-2.133333 46.933333 6.4 14.933333 8.533333 23.466667 21.333333 27.733333 38.4S981.333333 433.066667 972.8 445.866667z" fill="#272636" p-id="2594"></path></svg>