<?xml version="1.0" standalone="no"?><!DOCTYPE svg PUBLIC "-//W3C//DTD SVG 1.1//EN" "http://www.w3.org/Graphics/SVG/1.1/DTD/svg11.dtd"><svg t="1737630001690" class="icon" viewBox="0 0 1024 1024" version="1.1" xmlns="http://www.w3.org/2000/svg" p-id="2528" xmlns:xlink="http://www.w3.org/1999/xlink" width="200" height="200"><path d="M957.2352 0C993.826133 0 1023.658667 29.525333 1024 66.184533v891.6992A66.935467 66.935467 0 0 1 957.781333 1024H66.1504A66.935467 66.935467 0 0 1 0 957.883733V66.116267A66.218667 66.218667 0 0 1 66.116267 0h891.118933zM218.248533 78.711467H107.383467a29.149867 29.149867 0 0 0-28.808534 28.8768v807.355733a28.672 28.672 0 0 0 28.8768 28.8768h807.355734a31.914667 31.914667 0 0 0 31.1296-29.457067V107.451733a28.672 28.672 0 0 0-8.533334-20.343466 28.672 28.672 0 0 0-20.343466-8.465067h-401.408v245.384533c0 9.045333-3.9936 18.090667-10.171734 24.337067a32.8704 32.8704 0 0 1-24.3712 10.1376h-1.706666L368.64 309.896533l-116.497067 48.605867a33.245867 33.245867 0 0 1-24.849066-10.1376 29.969067 29.969067 0 0 1-9.045334-24.337067v-245.418666 0.1024z m549.000534 648.533333c18.090667 0 38.434133 16.964267 38.434133 38.980267 0 22.084267-20.343467 39.0144-38.434133 39.0144H475.477333a38.775467 38.775467 0 0 1-37.376-39.0144 39.253333 39.253333 0 0 1 37.888-38.980267h291.2256z m-442.709334 0c26.555733 0 44.100267 15.291733 44.100267 38.980267 0 23.7568-16.964267 39.0144-44.100267 39.0144h-62.805333c-26.555733 0-44.066133-15.2576-44.066133-39.0144s17.5104-38.980267 44.100266-38.980267h62.7712z m442.709334-217.7024c18.090667 0 38.434133 16.9984 38.434133 39.0144 0 22.084267-20.343467 39.0144-38.434133 39.0144H475.477333a39.150933 39.150933 0 0 1 0.580267-78.0288h291.157333z m-442.709334 0c26.555733 0 44.100267 15.2576 44.100267 39.0144s-16.964267 39.0144-44.100267 39.0144h-62.805333c-26.555733 0-44.066133-15.2576-44.066133-39.0144s17.5104-39.0144 44.100266-39.0144h62.7712z m111.957334-429.704533H294.570667v185.514666l74.069333-37.4784 1.160533 0.580267 20.821334 10.717867 45.8752 25.668266V79.7696v0.068267z" p-id="2529"></path></svg>